<?xml version="1.0" encoding="UTF-8" standalone="no"?>
<svg width="54px" height="54px" viewBox="0 0 54 54" version="1.1" xmlns="http://www.w3.org/2000/svg" xmlns:xlink="http://www.w3.org/1999/xlink" xmlns:sketch="http://www.bohemiancoding.com/sketch/ns">
    <!-- Generator: Sketch 3.1.1 (8761) - http://www.bohemiancoding.com/sketch -->
    <title>Group</title>
    <desc>Created with Sketch.</desc>
    <defs></defs>
    <g id="Page-1" stroke="none" stroke-width="1" fill="none" fill-rule="evenodd" sketch:type="MSPage">
        <g id="Group" sketch:type="MSLayerGroup" transform="translate(1.000000, 1.000000)" fill="#000000">
            <path d="M18.79,26.998 L15.545,26.998 L15.545,22.515 L11.036,15.043 L14.759,15.043 L17.176,19.56 L19.584,15.043 L23.196,15.043 L18.79,22.472 L18.79,26.998 L18.79,26.998 Z" id="Shape" sketch:type="MSShapeGroup"></path>
            <path d="M19.962,28.706 L27.289,13.847 L30.454,13.847 L23.125,28.706 L19.962,28.706 L19.962,28.706 Z" id="Shape" sketch:type="MSShapeGroup"></path>
            <path d="M36.419,19.639 L36.041,19.561 C35.873,19.53 35.703,19.5 35.537,19.472 C34.488,19.292 33.583,19.136 33.583,18.494 C33.583,17.954 34.175,17.633 35.168,17.633 C36.549,17.633 37.641,18.126 38.526,18.613 L39.831,16.069 C37.921,15.047 36.603,14.846 34.974,14.846 C32.192,14.846 30.351,16.33 30.284,18.626 C30.219,20.738 31.36,21.889 33.988,22.359 L34.434,22.436 C35.886,22.686 36.686,22.825 36.686,23.512 C36.686,24.1 36.132,24.424 35.126,24.424 C33.333,24.424 32.257,23.785 31.31,23.212 L29.823,25.758 C31.126,26.69 32.992,27.203 35.084,27.203 C36.426,27.203 37.633,26.873 38.482,26.273 C39.5,25.556 40.016,24.487 40.016,23.098 C40.016,21.275 38.806,20.111 36.419,19.639" id="Shape" sketch:type="MSShapeGroup"></path>
            <path d="M26,4.126 C13.796,4.126 3.867,14.055 3.867,26.259 C3.867,38.463 13.796,48.393 26,48.393 C38.204,48.393 48.135,38.463 48.135,26.259 C48.135,14.056 38.204,4.126 26,4.126 M26,52.639 C11.455,52.639 -0.38,40.805 -0.38,26.259 C-0.38,11.713 11.455,-0.121 26,-0.121 C40.547,-0.121 52.381,11.713 52.381,26.259 C52.381,40.806 40.547,52.639 26,52.639" id="Shape" sketch:type="MSShapeGroup"></path>
            <path d="M25.997,43.304 C18.688,43.304 12.595,37.356 12.414,30.045 L16.661,29.942 C16.782,34.882 21.058,39.057 25.997,39.057 C30.937,39.057 35.213,34.882 35.335,29.942 L39.582,30.045 C39.401,37.356 33.308,43.304 25.997,43.304" id="Shape" sketch:type="MSShapeGroup"></path>
        </g>
    </g>
</svg>