<?xml version="1.0" encoding="utf-8"?>
<!DOCTYPE svg PUBLIC "-//W3C//DTD SVG 1.1//EN" "http://www.w3.org/Graphics/SVG/1.1/DTD/svg11.dtd">
<svg version="1.1" id="Layer_1" xmlns="http://www.w3.org/2000/svg" xmlns:xlink="http://www.w3.org/1999/xlink" x="0px" y="0px"
	 width="82px" height="82px" viewBox="0 0 82 82" style="enable-background:new 0 0 82 82;" xml:space="preserve">
	<g id="Group" transform="translate(1.000000, 1.000000)">
		<path id="Shape" d="M29.066,41.121h-4.92v-6.798l-6.837-11.33h5.645l3.665,6.849l3.651-6.849h5.477
			l-6.681,11.265V41.121L29.066,41.121z"/>
		<path id="Shape_1_" d="M30.844,43.71l11.11-22.53h4.799L35.64,43.71H30.844L30.844,43.71z"/>
		<path id="Shape_2_" d="M55.797,29.962l-0.573-0.118c-0.255-0.047-0.512-0.093-0.764-0.135
			c-1.591-0.273-2.963-0.51-2.963-1.483c0-0.819,0.897-1.306,2.403-1.306c2.094,0,3.749,0.748,5.091,1.486l1.979-3.857
			c-2.896-1.55-4.895-1.854-7.363-1.854c-4.221,0-7.01,2.25-7.112,5.731c-0.1,3.202,1.63,4.948,5.616,5.66l0.676,0.118
			c2.203,0.379,3.414,0.59,3.414,1.632c0,0.891-0.84,1.382-2.364,1.382c-2.719,0-4.351-0.969-5.786-1.838l-2.255,3.86
			c1.976,1.413,4.805,2.192,7.977,2.192c2.034,0,3.865-0.501,5.153-1.411c1.543-1.087,2.324-2.708,2.324-4.814
			C61.25,32.442,59.417,30.677,55.797,29.962"/>
		<path id="Shape_3_" d="M39.999,6.44c-18.505,0-33.56,15.056-33.56,33.559
			c0,18.505,15.055,33.562,33.56,33.562c18.504,0,33.562-15.057,33.562-33.562C73.562,21.497,58.503,6.44,39.999,6.44 M39.999,80
			C17.944,80,0,62.055,0,39.999S17.944,0,39.999,0c22.057,0,40,17.943,40,39.999C79.999,62.058,62.056,80,39.999,80"/>
		<path id="Shape_4_" d="M39.994,65.846c-11.082,0-20.32-9.021-20.595-20.105l6.439-0.156
			c0.184,7.49,6.667,13.82,14.155,13.82c7.491,0,13.975-6.33,14.159-13.82l6.439,0.156C60.317,56.825,51.081,65.846,39.994,65.846"
			/>
	</g>
</svg>
