<?xml version="1.0" encoding="UTF-8" standalone="no"?>
<svg width="54px" height="54px" viewBox="0 0 54 54" version="1.1" xmlns="http://www.w3.org/2000/svg" xmlns:xlink="http://www.w3.org/1999/xlink" xmlns:sketch="http://www.bohemiancoding.com/sketch/ns">
    <!-- Generator: Sketch 3.2.2 (9983) - http://www.bohemiancoding.com/sketch -->
    <title>logo-inv</title>
    <desc>Created with Sketch.</desc>
    <defs></defs>
    <g id="Page-1" stroke="none" stroke-width="1" fill="none" fill-rule="evenodd" sketch:type="MSPage">
        <g id="logo" sketch:type="MSLayerGroup" fill="#FFFFFF">
            <g id="Page-1" sketch:type="MSShapeGroup">
                <g id="Group">
                    <path d="M19.79,27.998 L16.545,27.998 L16.545,23.515 L12.036,16.043 L15.759,16.043 L18.176,20.56 L20.584,16.043 L24.196,16.043 L19.79,23.472 L19.79,27.998 L19.79,27.998 Z" id="Shape"></path>
                    <path d="M20.962,29.706 L28.289,14.847 L31.454,14.847 L24.125,29.706 L20.962,29.706 L20.962,29.706 Z" id="Shape"></path>
                    <path d="M37.419,20.639 L37.041,20.561 C36.873,20.53 36.703,20.5 36.537,20.472 C35.488,20.292 34.583,20.136 34.583,19.494 C34.583,18.954 35.175,18.633 36.168,18.633 C37.549,18.633 38.641,19.126 39.526,19.613 L40.831,17.069 C38.921,16.047 37.603,15.846 35.974,15.846 C33.192,15.846 31.351,17.33 31.284,19.626 C31.219,21.738 32.36,22.889 34.988,23.359 L35.434,23.436 C36.886,23.686 37.686,23.825 37.686,24.512 C37.686,25.1 37.132,25.424 36.126,25.424 C34.333,25.424 33.257,24.785 32.31,24.212 L30.823,26.758 C32.126,27.69 33.992,28.203 36.084,28.203 C37.426,28.203 38.633,27.873 39.482,27.273 C40.5,26.556 41.016,25.487 41.016,24.098 C41.016,22.275 39.806,21.111 37.419,20.639" id="Shape"></path>
                    <path d="M27,5.126 C14.796,5.126 4.867,15.055 4.867,27.259 C4.867,39.463 14.796,49.393 27,49.393 C39.204,49.393 49.135,39.463 49.135,27.259 C49.135,15.056 39.204,5.126 27,5.126 M27,53.639 C12.455,53.639 0.62,41.805 0.62,27.259 C0.62,12.713 12.455,0.879 27,0.879 C41.547,0.879 53.381,12.713 53.381,27.259 C53.381,41.806 41.547,53.639 27,53.639" id="Shape"></path>
                    <path d="M26.997,44.304 C19.688,44.304 13.595,38.356 13.414,31.045 L17.661,30.942 C17.782,35.882 22.058,40.057 26.997,40.057 C31.937,40.057 36.213,35.882 36.335,30.942 L40.582,31.045 C40.401,38.356 34.308,44.304 26.997,44.304" id="Shape"></path>
                </g>
            </g>
        </g>
    </g>
</svg>